%TF.GenerationSoftware,KiCad,Pcbnew,9.0.2*%
%TF.CreationDate,2025-09-05T17:13:16+02:00*%
%TF.ProjectId,LLM Business Card,4c4c4d20-4275-4736-996e-657373204361,rev?*%
%TF.SameCoordinates,Original*%
%TF.FileFunction,Paste,Bot*%
%TF.FilePolarity,Positive*%
%FSLAX46Y46*%
G04 Gerber Fmt 4.6, Leading zero omitted, Abs format (unit mm)*
G04 Created by KiCad (PCBNEW 9.0.2) date 2025-09-05 17:13:16*
%MOMM*%
%LPD*%
G01*
G04 APERTURE LIST*
G04 Aperture macros list*
%AMRoundRect*
0 Rectangle with rounded corners*
0 $1 Rounding radius*
0 $2 $3 $4 $5 $6 $7 $8 $9 X,Y pos of 4 corners*
0 Add a 4 corners polygon primitive as box body*
4,1,4,$2,$3,$4,$5,$6,$7,$8,$9,$2,$3,0*
0 Add four circle primitives for the rounded corners*
1,1,$1+$1,$2,$3*
1,1,$1+$1,$4,$5*
1,1,$1+$1,$6,$7*
1,1,$1+$1,$8,$9*
0 Add four rect primitives between the rounded corners*
20,1,$1+$1,$2,$3,$4,$5,0*
20,1,$1+$1,$4,$5,$6,$7,0*
20,1,$1+$1,$6,$7,$8,$9,0*
20,1,$1+$1,$8,$9,$2,$3,0*%
G04 Aperture macros list end*
%ADD10R,0.700000X0.700000*%
%ADD11C,5.000000*%
%ADD12RoundRect,0.160000X0.160000X-0.197500X0.160000X0.197500X-0.160000X0.197500X-0.160000X-0.197500X0*%
%ADD13RoundRect,0.160000X-0.160000X0.197500X-0.160000X-0.197500X0.160000X-0.197500X0.160000X0.197500X0*%
G04 APERTURE END LIST*
D10*
%TO.C,D14*%
X131585000Y-113250000D03*
X131585000Y-112150000D03*
X133415000Y-112150000D03*
X133415000Y-113250000D03*
%TD*%
%TO.C,D25*%
X143200000Y-132000000D03*
X143200000Y-130900000D03*
X145030000Y-130900000D03*
X145030000Y-132000000D03*
%TD*%
%TO.C,D30*%
X121170000Y-137500000D03*
X121170000Y-136400000D03*
X123000000Y-136400000D03*
X123000000Y-137500000D03*
%TD*%
%TO.C,D39*%
X131485000Y-146550000D03*
X131485000Y-145450000D03*
X133315000Y-145450000D03*
X133315000Y-146550000D03*
%TD*%
%TO.C,D38*%
X135770000Y-146500000D03*
X135770000Y-145400000D03*
X137600000Y-145400000D03*
X137600000Y-146500000D03*
%TD*%
D11*
%TO.C,U4*%
X105000000Y-149000000D03*
%TD*%
D10*
%TO.C,D34*%
X154485000Y-146650000D03*
X154485000Y-145550000D03*
X156315000Y-145550000D03*
X156315000Y-146650000D03*
%TD*%
%TO.C,D12*%
X142000000Y-112000000D03*
X142000000Y-110900000D03*
X143830000Y-110900000D03*
X143830000Y-112000000D03*
%TD*%
%TO.C,D13*%
X136170000Y-112700000D03*
X136170000Y-111600000D03*
X138000000Y-111600000D03*
X138000000Y-112700000D03*
%TD*%
%TO.C,D28*%
X129500000Y-134000000D03*
X129500000Y-132900000D03*
X131330000Y-132900000D03*
X131330000Y-134000000D03*
%TD*%
%TO.C,D44*%
X111500000Y-105600000D03*
X111500000Y-104500000D03*
X113330000Y-104500000D03*
X113330000Y-105600000D03*
%TD*%
%TO.C,D36*%
X145270000Y-146550000D03*
X145270000Y-145450000D03*
X147100000Y-145450000D03*
X147100000Y-146550000D03*
%TD*%
%TO.C,D15*%
X127000000Y-114500000D03*
X127000000Y-113400000D03*
X128830000Y-113400000D03*
X128830000Y-114500000D03*
%TD*%
%TO.C,D26*%
X138670000Y-132500000D03*
X138670000Y-131400000D03*
X140500000Y-131400000D03*
X140500000Y-132500000D03*
%TD*%
%TO.C,D10*%
X153170000Y-112500000D03*
X153170000Y-111400000D03*
X155000000Y-111400000D03*
X155000000Y-112500000D03*
%TD*%
%TO.C,D32*%
X163570000Y-146700000D03*
X163570000Y-145600000D03*
X165400000Y-145600000D03*
X165400000Y-146700000D03*
%TD*%
%TO.C,D9*%
X158670000Y-114000000D03*
X158670000Y-112900000D03*
X160500000Y-112900000D03*
X160500000Y-114000000D03*
%TD*%
%TO.C,D6*%
X174670000Y-120500000D03*
X174670000Y-119400000D03*
X176500000Y-119400000D03*
X176500000Y-120500000D03*
%TD*%
%TO.C,D20*%
X165185000Y-137550000D03*
X165185000Y-136450000D03*
X167015000Y-136450000D03*
X167015000Y-137550000D03*
%TD*%
%TO.C,D35*%
X149985000Y-146650000D03*
X149985000Y-145550000D03*
X151815000Y-145550000D03*
X151815000Y-146650000D03*
%TD*%
%TO.C,D8*%
X164170000Y-115550000D03*
X164170000Y-114450000D03*
X166000000Y-114450000D03*
X166000000Y-115550000D03*
%TD*%
%TO.C,D7*%
X169585000Y-117550000D03*
X169585000Y-116450000D03*
X171415000Y-116450000D03*
X171415000Y-117550000D03*
%TD*%
%TO.C,D31*%
X117170000Y-140000000D03*
X117170000Y-138900000D03*
X119000000Y-138900000D03*
X119000000Y-140000000D03*
%TD*%
D12*
%TO.C,R12*%
X110000000Y-138597500D03*
X110000000Y-137402500D03*
%TD*%
D10*
%TO.C,D29*%
X125085000Y-135550000D03*
X125085000Y-134450000D03*
X126915000Y-134450000D03*
X126915000Y-135550000D03*
%TD*%
D11*
%TO.C,U5*%
X105000000Y-116000000D03*
%TD*%
D10*
%TO.C,D17*%
X116500000Y-118000000D03*
X116500000Y-116900000D03*
X118330000Y-116900000D03*
X118330000Y-118000000D03*
%TD*%
D13*
%TO.C,R10*%
X110000000Y-115402500D03*
X110000000Y-116597500D03*
%TD*%
%TO.C,R9*%
X110000000Y-104402500D03*
X110000000Y-105597500D03*
%TD*%
D10*
%TO.C,D43*%
X111585000Y-116550000D03*
X111585000Y-115450000D03*
X113415000Y-115450000D03*
X113415000Y-116550000D03*
%TD*%
%TO.C,D46*%
X122585000Y-146550000D03*
X122585000Y-145450000D03*
X124415000Y-145450000D03*
X124415000Y-146550000D03*
%TD*%
%TO.C,D18*%
X111000000Y-121000000D03*
X111000000Y-119900000D03*
X112830000Y-119900000D03*
X112830000Y-121000000D03*
%TD*%
%TO.C,D19*%
X169085000Y-140050000D03*
X169085000Y-138950000D03*
X170915000Y-138950000D03*
X170915000Y-140050000D03*
%TD*%
%TO.C,D27*%
X133885000Y-133000000D03*
X133885000Y-131900000D03*
X135715000Y-131900000D03*
X135715000Y-133000000D03*
%TD*%
%TO.C,D37*%
X140670000Y-146550000D03*
X140670000Y-145450000D03*
X142500000Y-145450000D03*
X142500000Y-146550000D03*
%TD*%
D11*
%TO.C,U6*%
X105000000Y-105000000D03*
%TD*%
%TO.C,U3*%
X105000000Y-138000000D03*
%TD*%
D10*
%TO.C,D24*%
X147600000Y-132550000D03*
X147600000Y-131450000D03*
X149430000Y-131450000D03*
X149430000Y-132550000D03*
%TD*%
%TO.C,D42*%
X111500000Y-138600000D03*
X111500000Y-137500000D03*
X113330000Y-137500000D03*
X113330000Y-138600000D03*
%TD*%
%TO.C,D33*%
X159300000Y-146700000D03*
X159300000Y-145600000D03*
X161130000Y-145600000D03*
X161130000Y-146700000D03*
%TD*%
%TO.C,D22*%
X156585000Y-134050000D03*
X156585000Y-132950000D03*
X158415000Y-132950000D03*
X158415000Y-134050000D03*
%TD*%
%TO.C,D40*%
X126885000Y-146550000D03*
X126885000Y-145450000D03*
X128715000Y-145450000D03*
X128715000Y-146550000D03*
%TD*%
%TO.C,D23*%
X152170000Y-133000000D03*
X152170000Y-131900000D03*
X154000000Y-131900000D03*
X154000000Y-133000000D03*
%TD*%
%TO.C,D21*%
X161170000Y-135500000D03*
X161170000Y-134400000D03*
X163000000Y-134400000D03*
X163000000Y-135500000D03*
%TD*%
D13*
%TO.C,R11*%
X110000000Y-148402500D03*
X110000000Y-149597500D03*
%TD*%
D10*
%TO.C,D41*%
X111585000Y-149550000D03*
X111585000Y-148450000D03*
X113415000Y-148450000D03*
X113415000Y-149550000D03*
%TD*%
%TO.C,D16*%
X121500000Y-116000000D03*
X121500000Y-114900000D03*
X123330000Y-114900000D03*
X123330000Y-116000000D03*
%TD*%
%TO.C,D11*%
X147670000Y-112100000D03*
X147670000Y-111000000D03*
X149500000Y-111000000D03*
X149500000Y-112100000D03*
%TD*%
M02*
