M48
; DRILL file {KiCad 9.0.2} date 2025-09-05T17:13:16+0200
; FORMAT={-:-/ absolute / inch / decimal}
; #@! TF.CreationDate,2025-09-05T17:13:16+02:00
; #@! TF.GenerationSoftware,Kicad,Pcbnew,9.0.2
; #@! TF.FileFunction,Plated,1,2,PTH
FMAT,2
INCH
; #@! TA.AperFunction,Plated,PTH,ComponentDrill
T1C0.0079
; #@! TA.AperFunction,Plated,PTH,ViaDrill
T2C0.0118
; #@! TA.AperFunction,Plated,PTH,ComponentDrill
T3C0.0236
; #@! TA.AperFunction,Plated,PTH,ComponentDrill
T4C0.0394
%
G90
G05
T1
X6.652Y-4.9173
X6.652Y-4.9724
X6.6795Y-4.8898
X6.6795Y-4.9449
X6.6795Y-5.0
X6.7071Y-4.9173
X6.7071Y-4.9724
X6.7346Y-4.8898
X6.7346Y-4.9449
X6.7346Y-5.0
X6.7622Y-4.9173
X6.7622Y-4.9724
T2
X4.114Y-4.3261
X4.2707Y-4.9109
X4.2943Y-4.178
X4.3335Y-4.0685
X4.3631Y-5.1607
X4.3844Y-5.5615
X4.4154Y-4.4384
X4.4206Y-5.1935
X4.4791Y-4.3701
X4.4969Y-4.1171
X4.5048Y-5.0344
X4.5514Y-4.742
X4.5572Y-5.2746
X4.5767Y-3.9709
X4.5787Y-4.5592
X4.5788Y-5.5737
X4.6077Y-5.1974
X4.631Y-5.4239
X4.6489Y-4.6893
X4.728Y-4.4647
X4.8065Y-5.4026
X5.3106Y-5.6996
X5.3864Y-5.203
X5.3959Y-4.4873
X5.4021Y-5.4944
X5.4196Y-5.4068
X5.4428Y-5.6899
X5.4646Y-5.4723
X5.4764Y-4.6476
X5.4794Y-4.9696
X5.5018Y-4.6698
X5.5159Y-4.5927
X5.5568Y-5.6651
X5.5661Y-5.5977
X5.5761Y-5.2801
X5.579Y-4.5507
X5.6448Y-4.4873
X5.6817Y-5.7608
X5.7025Y-5.2309
X5.7369Y-5.6917
X5.7542Y-5.2582
X5.7872Y-5.6572
X5.8532Y-5.4492
X5.8687Y-4.2884
X5.8984Y-4.5399
X5.9015Y-4.2928
X5.9821Y-5.4574
X5.9867Y-5.5098
X6.0763Y-4.5215
X6.1445Y-5.6703
X6.1833Y-4.2771
X6.2151Y-5.4609
X6.2162Y-4.2274
X6.2406Y-4.3355
X6.3574Y-4.1822
X6.3787Y-4.3946
X6.4492Y-4.3871
X6.5113Y-5.6324
X6.5201Y-5.4696
X6.6065Y-4.5128
X6.6423Y-5.4075
X6.6849Y-5.8996
X6.7153Y-5.7861
X6.7217Y-5.4284
X6.7405Y-4.2044
X6.7807Y-4.7743
X6.8199Y-4.5759
X6.9875Y-4.5884
X6.9875Y-5.9055
T4
X4.9173Y-5.9449
X4.9205Y-4.0551
X5.0173Y-5.9449
X5.0205Y-4.0551
X5.1173Y-5.9449
X5.1205Y-4.0551
X5.2173Y-5.9449
X5.2205Y-4.0551
X5.3173Y-5.9449
X5.3205Y-4.0551
X5.4173Y-5.9449
X5.4205Y-4.0551
X5.5173Y-5.9449
X5.5205Y-4.0551
X5.6173Y-5.9449
X5.6205Y-4.0551
X5.7173Y-5.9449
X5.7205Y-4.0551
X5.8173Y-5.9449
X5.8205Y-4.0551
X5.9173Y-5.9449
X5.9205Y-4.0551
X6.0173Y-5.9449
X6.0205Y-4.0551
X6.1173Y-5.9449
X6.1205Y-4.0551
X6.2173Y-5.9449
X6.2205Y-4.0551
X6.3173Y-5.9449
X6.3205Y-4.0551
X6.4173Y-5.9449
X6.4205Y-4.0551
T3
G00X4.0512Y-4.8299
M15
G01X4.0197Y-4.8299
M16
G05
G00X4.0512Y-5.1701
M15
G01X4.0197Y-5.1701
M16
G05
G00X4.2217Y-4.8299
M15
G01X4.1783Y-4.8299
M16
G05
G00X4.2217Y-5.1701
M15
G01X4.1783Y-5.1701
M16
G05
M30
