%TF.GenerationSoftware,KiCad,Pcbnew,9.0.2*%
%TF.CreationDate,2025-09-05T17:13:16+02:00*%
%TF.ProjectId,LLM Business Card,4c4c4d20-4275-4736-996e-657373204361,rev?*%
%TF.SameCoordinates,Original*%
%TF.FileFunction,Paste,Top*%
%TF.FilePolarity,Positive*%
%FSLAX46Y46*%
G04 Gerber Fmt 4.6, Leading zero omitted, Abs format (unit mm)*
G04 Created by KiCad (PCBNEW 9.0.2) date 2025-09-05 17:13:16*
%MOMM*%
%LPD*%
G01*
G04 APERTURE LIST*
G04 Aperture macros list*
%AMRoundRect*
0 Rectangle with rounded corners*
0 $1 Rounding radius*
0 $2 $3 $4 $5 $6 $7 $8 $9 X,Y pos of 4 corners*
0 Add a 4 corners polygon primitive as box body*
4,1,4,$2,$3,$4,$5,$6,$7,$8,$9,$2,$3,0*
0 Add four circle primitives for the rounded corners*
1,1,$1+$1,$2,$3*
1,1,$1+$1,$4,$5*
1,1,$1+$1,$6,$7*
1,1,$1+$1,$8,$9*
0 Add four rect primitives between the rounded corners*
20,1,$1+$1,$2,$3,$4,$5,0*
20,1,$1+$1,$4,$5,$6,$7,0*
20,1,$1+$1,$6,$7,$8,$9,0*
20,1,$1+$1,$8,$9,$2,$3,0*%
G04 Aperture macros list end*
%ADD10RoundRect,0.160000X-0.222500X-0.160000X0.222500X-0.160000X0.222500X0.160000X-0.222500X0.160000X0*%
%ADD11RoundRect,0.160000X-0.197500X-0.160000X0.197500X-0.160000X0.197500X0.160000X-0.197500X0.160000X0*%
%ADD12RoundRect,0.250000X-0.475000X0.250000X-0.475000X-0.250000X0.475000X-0.250000X0.475000X0.250000X0*%
%ADD13RoundRect,0.150000X-0.425000X0.150000X-0.425000X-0.150000X0.425000X-0.150000X0.425000X0.150000X0*%
%ADD14RoundRect,0.075000X-0.500000X0.075000X-0.500000X-0.075000X0.500000X-0.075000X0.500000X0.075000X0*%
%ADD15O,2.100000X1.000000*%
%ADD16O,1.800000X1.000000*%
%ADD17RoundRect,0.160000X-0.160000X0.197500X-0.160000X-0.197500X0.160000X-0.197500X0.160000X0.197500X0*%
%ADD18RoundRect,0.250000X-0.250000X-0.475000X0.250000X-0.475000X0.250000X0.475000X-0.250000X0.475000X0*%
%ADD19RoundRect,0.160000X0.197500X0.160000X-0.197500X0.160000X-0.197500X-0.160000X0.197500X-0.160000X0*%
%ADD20R,0.480000X0.400000*%
%ADD21R,0.900000X0.900000*%
%ADD22R,0.900000X1.500000*%
%ADD23R,1.500000X0.900000*%
%ADD24RoundRect,0.375000X0.625000X0.375000X-0.625000X0.375000X-0.625000X-0.375000X0.625000X-0.375000X0*%
%ADD25RoundRect,0.500000X0.500000X1.400000X-0.500000X1.400000X-0.500000X-1.400000X0.500000X-1.400000X0*%
%ADD26RoundRect,0.160000X0.160000X-0.197500X0.160000X0.197500X-0.160000X0.197500X-0.160000X-0.197500X0*%
%ADD27RoundRect,0.150000X-0.587500X-0.150000X0.587500X-0.150000X0.587500X0.150000X-0.587500X0.150000X0*%
%ADD28R,1.210000X0.730000*%
%ADD29RoundRect,0.250000X0.475000X-0.250000X0.475000X0.250000X-0.475000X0.250000X-0.475000X-0.250000X0*%
%ADD30R,1.050000X0.650000*%
G04 APERTURE END LIST*
D10*
%TO.C,D5*%
X121702500Y-111190000D03*
X122847500Y-111190000D03*
%TD*%
D11*
%TO.C,R5*%
X121652500Y-113050000D03*
X122847500Y-113050000D03*
%TD*%
%TO.C,R8*%
X109902500Y-106750000D03*
X111097500Y-106750000D03*
%TD*%
%TO.C,R3*%
X114852500Y-127000000D03*
X116047500Y-127000000D03*
%TD*%
D12*
%TO.C,C8*%
X118750000Y-115050000D03*
X118750000Y-116950000D03*
%TD*%
D13*
%TO.C,J1*%
X107255000Y-123800000D03*
X107255000Y-124600000D03*
D14*
X107255000Y-125750000D03*
X107255000Y-126750000D03*
X107255000Y-127250000D03*
X107255000Y-128250000D03*
D13*
X107255000Y-129400000D03*
X107255000Y-130200000D03*
X107255000Y-130200000D03*
X107255000Y-129400000D03*
D14*
X107255000Y-128750000D03*
X107255000Y-127750000D03*
X107255000Y-126250000D03*
X107255000Y-125250000D03*
D13*
X107255000Y-124600000D03*
X107255000Y-123800000D03*
D15*
X106680000Y-122680000D03*
D16*
X102500000Y-122680000D03*
D15*
X106680000Y-131320000D03*
D16*
X102500000Y-131320000D03*
%TD*%
D17*
%TO.C,R2*%
X171500000Y-108305000D03*
X171500000Y-109500000D03*
%TD*%
D18*
%TO.C,C11*%
X119000000Y-131500000D03*
X120900000Y-131500000D03*
%TD*%
D19*
%TO.C,R14*%
X111097500Y-104250000D03*
X109902500Y-104250000D03*
%TD*%
D12*
%TO.C,C6*%
X115250000Y-111000000D03*
X115250000Y-112900000D03*
%TD*%
D20*
%TO.C,D4*%
X116110000Y-131000000D03*
X114790000Y-131000000D03*
%TD*%
D17*
%TO.C,R7*%
X176750000Y-101750000D03*
X176750000Y-102945000D03*
%TD*%
D20*
%TO.C,D3*%
X116110000Y-129000000D03*
X114790000Y-129000000D03*
%TD*%
D21*
%TO.C,U1*%
X171760000Y-124200000D03*
X170360000Y-124200000D03*
X168960000Y-124200000D03*
X171760000Y-125600000D03*
X170360000Y-125600000D03*
X168960000Y-125600000D03*
X171760000Y-127000000D03*
X170360000Y-127000000D03*
X168960000Y-127000000D03*
D22*
X178080000Y-118350000D03*
X176810000Y-118350000D03*
X175540000Y-118350000D03*
X174270000Y-118350000D03*
X173000000Y-118350000D03*
X171730000Y-118350000D03*
X170460000Y-118350000D03*
X169190000Y-118350000D03*
X167920000Y-118350000D03*
X166650000Y-118350000D03*
X165380000Y-118350000D03*
X164110000Y-118350000D03*
X162840000Y-118350000D03*
X161570000Y-118350000D03*
D23*
X160320000Y-120115000D03*
X160320000Y-121385000D03*
X160320000Y-122655000D03*
X160320000Y-123925000D03*
X160320000Y-125195000D03*
X160320000Y-126465000D03*
X160320000Y-127735000D03*
X160320000Y-129005000D03*
X160320000Y-130275000D03*
X160320000Y-131545000D03*
X160320000Y-132815000D03*
X160320000Y-134085000D03*
D22*
X161570000Y-135850000D03*
X162840000Y-135850000D03*
X164110000Y-135850000D03*
X165380000Y-135850000D03*
X166650000Y-135850000D03*
X167920000Y-135850000D03*
X169190000Y-135850000D03*
X170460000Y-135850000D03*
X171730000Y-135850000D03*
X173000000Y-135850000D03*
X174270000Y-135850000D03*
X175540000Y-135850000D03*
X176810000Y-135850000D03*
X178080000Y-135850000D03*
%TD*%
D17*
%TO.C,R13*%
X103687500Y-104902500D03*
X103687500Y-106097500D03*
%TD*%
D12*
%TO.C,C5*%
X118750000Y-111100000D03*
X118750000Y-113000000D03*
%TD*%
D18*
%TO.C,C4*%
X119050000Y-127500000D03*
X120950000Y-127500000D03*
%TD*%
%TO.C,C2*%
X173600000Y-111500000D03*
X175500000Y-111500000D03*
%TD*%
D24*
%TO.C,U2*%
X110650000Y-116300000D03*
X110650000Y-114000000D03*
D25*
X104350000Y-114000000D03*
D24*
X110650000Y-111700000D03*
%TD*%
D26*
%TO.C,R6*%
X176750000Y-152097500D03*
X176750000Y-150902500D03*
%TD*%
D20*
%TO.C,D2*%
X116200000Y-138000000D03*
X114880000Y-138000000D03*
%TD*%
D27*
%TO.C,Q1*%
X106062500Y-104550000D03*
X106062500Y-106450000D03*
X107937500Y-105500000D03*
%TD*%
D18*
%TO.C,C1*%
X173550000Y-114000000D03*
X175450000Y-114000000D03*
%TD*%
D11*
%TO.C,R4*%
X114852500Y-133000000D03*
X116047500Y-133000000D03*
%TD*%
D18*
%TO.C,C3*%
X173550000Y-109000000D03*
X175450000Y-109000000D03*
%TD*%
D12*
%TO.C,C7*%
X115250000Y-115050000D03*
X115250000Y-116950000D03*
%TD*%
D26*
%TO.C,R1*%
X171500000Y-114695000D03*
X171500000Y-113500000D03*
%TD*%
D28*
%TO.C,D1*%
X115270000Y-135250000D03*
X118630000Y-135250000D03*
%TD*%
D29*
%TO.C,C9*%
X174000000Y-152062500D03*
X174000000Y-150162500D03*
%TD*%
D30*
%TO.C,SW1*%
X166850000Y-149850000D03*
X171000000Y-149850000D03*
X166850000Y-152000000D03*
X171000000Y-152000000D03*
%TD*%
%TO.C,SW2*%
X166925000Y-101925000D03*
X171075000Y-101925000D03*
X166925000Y-104075000D03*
X171075000Y-104075000D03*
%TD*%
D29*
%TO.C,C10*%
X174000000Y-103950000D03*
X174000000Y-102050000D03*
%TD*%
M02*
